<?xml version="1.0" standalone="no"?>
<!DOCTYPE svg PUBLIC "-//W3C//DTD SVG 20010904//EN"
 "http://www.w3.org/TR/2001/REC-SVG-20010904/DTD/svg10.dtd">
<svg version="1.0" xmlns="http://www.w3.org/2000/svg"
 width="310.000000pt" height="310.000000pt" viewBox="0 0 310.000000 310.000000"
 preserveAspectRatio="xMidYMid meet">
<metadata>
Created by potrace 1.14, written by Peter Selinger 2001-2017
</metadata>
<g transform="translate(0.000000,310.000000) scale(0.100000,-0.100000)"
fill="#000000" stroke="none">
<path d="M888 2717 c-362 -210 -658 -384 -658 -387 0 -8 1311 -763 1325 -763
15 0 1325 755 1325 763 0 7 -1308 764 -1324 767 -6 0 -307 -170 -668 -380z
m1016 56 c188 -108 353 -204 369 -213 l27 -17 -182 -105 -183 -105 -3 -216 -2
-215 -184 -106 c-101 -58 -187 -106 -190 -106 -4 0 -90 48 -192 106 l-184 106
2 431 3 430 180 103 c98 57 184 104 189 104 5 0 163 -89 350 -197z"/>
<path d="M1729 2641 c-74 -42 -142 -82 -153 -88 -16 -9 3 -23 134 -97 l153
-87 131 75 c72 41 139 81 150 89 17 12 7 20 -125 97 -79 45 -147 84 -150 86
-3 2 -66 -32 -140 -75z"/>
<path d="M1275 2595 c-14 -13 -25 -36 -25 -50 0 -14 11 -37 25 -50 13 -14 36
-25 50 -25 14 0 37 11 50 25 14 13 25 36 25 50 0 33 -42 75 -75 75 -14 0 -37
-11 -50 -25z"/>
<path d="M212 1539 l3 -773 645 -373 c355 -206 653 -378 663 -384 16 -9 17 30
17 763 l-1 773 -626 360 c-344 198 -643 370 -664 383 l-39 23 2 -772z m295
402 c116 -67 118 -69 123 -109 7 -57 484 -883 523 -905 l27 -16 0 314 c0 204
4 315 10 315 6 0 48 -21 95 -47 l85 -48 0 -573 0 -574 -57 32 c-194 109 -193
108 -193 148 0 29 -30 89 -148 292 -81 140 -192 332 -246 426 -67 117 -108
177 -127 188 l-29 17 -2 -320 -3 -320 -90 52 -90 53 -3 572 c-1 315 0 572 2
572 3 0 58 -31 123 -69z"/>
<path d="M2235 1927 l-660 -382 -3 -773 -2 -773 39 23 c21 13 320 185 664 383
l626 360 1 773 c0 424 -1 772 -2 771 -2 0 -300 -172 -663 -382z m406 -78 l89
-51 0 -108 0 -108 -61 -107 c-34 -58 -60 -107 -58 -109 2 -1 30 -17 62 -35
l57 -32 -1 -147 -1 -147 -61 -105 -62 -104 -430 -248 -430 -249 -3 568 c-2
445 1 570 10 579 18 16 780 454 791 454 5 0 49 -23 98 -51z"/>
<path d="M2183 1552 l-253 -147 0 -172 c0 -95 3 -173 6 -173 4 0 121 66 260
146 l254 146 45 79 c42 73 45 83 45 151 l0 73 -42 23 c-24 12 -47 22 -53 21
-5 0 -124 -67 -262 -147z"/>
<path d="M2183 1052 l-253 -147 0 -172 c0 -95 2 -173 5 -173 3 0 120 66 260
147 l255 147 45 79 c42 74 45 85 45 151 l0 71 -40 23 c-21 12 -45 22 -52 21
-7 0 -127 -66 -265 -147z"/>
</g>
</svg>
